General
Complete name                            : /Volumes/Media HD/Tests/02 Test Project (PY) 3/2023-06-17 Laura & Sarah/03 MEDIA/01 VIDEO/CAM 1/A001_01241858_C002.mp4
Format                                   : MPEG-4
Format profile                           : Base Media
Codec ID                                 : isom (isom/iso2/mp41)
File size                                : 45.7 MiB
Duration                                 : 18 s 167 ms
Overall bit rate                         : 21.1 Mb/s
Frame rate                               : 24.000 FPS
Writing application                      : Lavf61.7.100

Video
ID                                       : 1
Format                                   : HEVC
Format/Info                              : High Efficiency Video Coding
Format profile                           : Main 10@L5.1@Main
Codec ID                                 : hvc1
Codec ID/Info                            : High Efficiency Video Coding
Duration                                 : 18 s 167 ms
Bit rate                                 : 19.5 Mb/s
Width                                    : 4 096 pixels
Height                                   : 2 160 pixels
Display aspect ratio                     : 1.896
Frame rate mode                          : Constant
Frame rate                               : 24.000 FPS
Color space                              : YUV
Chroma subsampling                       : 4:2:0
Bit depth                                : 10 bits
Scan type                                : Progressive
Bits/(Pixel*Frame)                       : 0.092
Stream size                              : 42.3 MiB (93%)
Writing library                          : Lavc61.19.101 hevc_videotoolbox
Language                                 : English
Color range                              : Limited
Color primaries                          : BT.709
Transfer characteristics                 : BT.709
Matrix coefficients                      : BT.709
Codec configuration box                  : hvcC

Audio
ID                                       : 2
Format                                   : PCM
Format settings                          : Little / Signed
Codec ID                                 : ipcm
Duration                                 : 18 s 167 ms
Bit rate mode                            : Constant
Bit rate                                 : 1 536 kb/s
Channel(s)                               : 2 channels
Channel layout                           : L R
Sampling rate                            : 48.0 kHz
Bit depth                                : 16 bits
Stream size                              : 3.33 MiB (7%)
Language                                 : English
Default                                  : Yes
Alternate group                          : 1

Other
ID                                       : 3
Type                                     : Time code
Format                                   : QuickTime TC
Duration                                 : 18 s 167 ms
Frame rate                               : 24.000 FPS
Time code of first frame                 : 18:58:04:21
Time code of last frame                  : 18:58:23:00
Time code, stripped                      : Yes
Language                                 : English
Default                                  : No

